<svg xmlns="http://www.w3.org/2000/svg" width="104" height="104" viewBox="0 0 104 104" fill="none">
  <path d="M17.7966 94.8145C17.7966 85.7432 21.4002 77.0435 27.8146 70.6291C34.2289 64.2147 42.9287 60.6112 52 60.6112C61.0713 60.6112 69.771 64.2147 76.1854 70.6291C82.5997 77.0435 86.2033 85.7432 86.2033 94.8145H77.6525C77.6525 88.011 74.9498 81.4862 70.139 76.6755C65.3282 71.8647 58.8034 69.162 52 69.162C45.1965 69.162 38.6717 71.8647 33.8609 76.6755C29.0501 81.4862 26.3475 88.011 26.3475 94.8145H17.7966ZM52 56.3358C37.827 56.3358 26.3475 44.8563 26.3475 30.6833C26.3475 16.5103 37.827 5.03076 52 5.03076C66.173 5.03076 77.6525 16.5103 77.6525 30.6833C77.6525 44.8563 66.173 56.3358 52 56.3358ZM52 47.7849C61.4486 47.7849 69.1016 40.1319 69.1016 30.6833C69.1016 21.2346 61.4486 13.5816 52 13.5816C42.5513 13.5816 34.8983 21.2346 34.8983 30.6833C34.8983 40.1319 42.5513 47.7849 52 47.7849Z" fill="white"/>
</svg>