<svg xmlns="http://www.w3.org/2000/svg" width="62" height="62" viewBox="0 0 62 62" fill="none">
  <mask id="mask0_2894_718" style="mask-type:alpha" maskUnits="userSpaceOnUse" x="0" y="0" width="62" height="62">
    <rect x="0.548096" y="0.376709" width="60.904" height="60.904" fill="#D9D9D9"/>
  </mask>
  <g mask="url(#mask0_2894_718)">
    <path d="M15.7742 53.6677C12.9828 53.6677 10.5931 52.6738 8.6053 50.686C6.61746 48.6981 5.62354 46.3085 5.62354 43.517C5.62354 40.7256 6.61746 38.336 8.6053 36.3481C10.5931 34.3603 12.9828 33.3664 15.7742 33.3664C18.5656 33.3664 20.9553 34.3603 22.9431 36.3481C24.931 38.336 25.9249 40.7256 25.9249 43.517C25.9249 46.3085 24.931 48.6981 22.9431 50.686C20.9553 52.6738 18.5656 53.6677 15.7742 53.6677ZM46.2262 53.6677C43.4348 53.6677 41.0452 52.6738 39.0573 50.686C37.0695 48.6981 36.0756 46.3085 36.0756 43.517C36.0756 40.7256 37.0695 38.336 39.0573 36.3481C41.0452 34.3603 43.4348 33.3664 46.2262 33.3664C49.0177 33.3664 51.4073 34.3603 53.3951 36.3481C55.383 38.336 56.3769 40.7256 56.3769 43.517C56.3769 46.3085 55.383 48.6981 53.3951 50.686C51.4073 52.6738 49.0177 53.6677 46.2262 53.6677ZM15.7742 48.5924C17.1699 48.5924 18.3647 48.0954 19.3587 47.1015C20.3526 46.1076 20.8495 44.9128 20.8495 43.517C20.8495 42.1213 20.3526 40.9265 19.3587 39.9326C18.3647 38.9387 17.1699 38.4417 15.7742 38.4417C14.3785 38.4417 13.1837 38.9387 12.1898 39.9326C11.1958 40.9265 10.6989 42.1213 10.6989 43.517C10.6989 44.9128 11.1958 46.1076 12.1898 47.1015C13.1837 48.0954 14.3785 48.5924 15.7742 48.5924ZM46.2262 48.5924C47.6219 48.5924 48.8168 48.0954 49.8107 47.1015C50.8046 46.1076 51.3016 44.9128 51.3016 43.517C51.3016 42.1213 50.8046 40.9265 49.8107 39.9326C48.8168 38.9387 47.6219 38.4417 46.2262 38.4417C44.8305 38.4417 43.6357 38.9387 42.6418 39.9326C41.6479 40.9265 41.1509 42.1213 41.1509 43.517C41.1509 44.9128 41.6479 46.1076 42.6418 47.1015C43.6357 48.0954 44.8305 48.5924 46.2262 48.5924ZM31.0002 28.291C28.2088 28.291 25.8191 27.2971 23.8313 25.3093C21.8435 23.3214 20.8495 20.9318 20.8495 18.1404C20.8495 15.3489 21.8435 12.9593 23.8313 10.9714C25.8191 8.98361 28.2088 7.98969 31.0002 7.98969C33.7917 7.98969 36.1813 8.98361 38.1691 10.9714C40.157 12.9593 41.1509 15.3489 41.1509 18.1404C41.1509 20.9318 40.157 23.3214 38.1691 25.3093C36.1813 27.2971 33.7917 28.291 31.0002 28.291ZM31.0002 23.2157C32.3959 23.2157 33.5908 22.7187 34.5847 21.7248C35.5786 20.7309 36.0756 19.5361 36.0756 18.1404C36.0756 16.7446 35.5786 15.5498 34.5847 14.5559C33.5908 13.562 32.3959 13.065 31.0002 13.065C29.6045 13.065 28.4097 13.562 27.4158 14.5559C26.4218 15.5498 25.9249 16.7446 25.9249 18.1404C25.9249 19.5361 26.4218 20.7309 27.4158 21.7248C28.4097 22.7187 29.6045 23.2157 31.0002 23.2157Z" fill="#6D3DF5"/>
  </g>
</svg>