<svg xmlns="http://www.w3.org/2000/svg" width="62" height="62" viewBox="0 0 62 62" fill="none">
  <path d="M31.0001 35.9017V40.9767C26.9622 40.9767 23.0896 42.5807 20.2344 45.436C17.3791 48.2912 15.7751 52.1638 15.7751 56.2017H10.7001C10.7001 50.8178 12.8388 45.6544 16.6458 41.8474C20.4528 38.0404 25.6162 35.9017 31.0001 35.9017ZM31.0001 33.3642C22.5883 33.3642 15.7751 26.551 15.7751 18.1392C15.7751 9.72737 22.5883 2.91418 31.0001 2.91418C39.4119 2.91418 46.2251 9.72737 46.2251 18.1392C46.2251 26.551 39.4119 33.3642 31.0001 33.3642ZM31.0001 28.2892C36.6079 28.2892 41.1501 23.7471 41.1501 18.1392C41.1501 12.5313 36.6079 7.98918 31.0001 7.98918C25.3922 7.98918 20.8501 12.5313 20.8501 18.1392C20.8501 23.7471 25.3922 28.2892 31.0001 28.2892ZM46.2251 54.9329L38.7674 58.8534L40.1909 50.5507L34.1593 44.6687L42.4975 43.4558L46.2251 35.9017L49.9552 43.4558L58.2909 44.6687L52.2592 50.5507L53.6802 58.8534L46.2251 54.9329Z" fill="#6D3DF5"/>
</svg>