<svg xmlns="http://www.w3.org/2000/svg" width="828" height="792" viewBox="0 0 828 792" fill="none">
  <path opacity="0.05" d="M425.686 272.143C390.68 270.54 360.098 278.995 332.934 300.125C330.721 301.936 324.484 301.333 322.272 299.523C308.794 288.058 295.921 275.587 282.444 264.122C276.61 259.093 275.001 255.07 277.618 247.223C286.878 219.458 276.422 190.892 252.082 173.393C230.155 157.504 199.575 158.314 175.631 175.419C154.101 190.914 144.439 220.692 152.481 247.247C163.741 284.665 206.187 303.77 242.001 287.266C249.244 284.045 253.268 284.447 259.101 289.878C273.383 303.355 288.671 315.825 304.159 329.704C284.639 360.489 277.189 394.089 284.022 431.105C232.113 448.819 180.606 466.533 129.099 484.247C103.555 451.861 66.136 443.821 33.5403 463.543C4.56645 480.85 -6.9077 516.06 4.3529 547.04C16.0157 578.825 47.5984 597.127 81.5997 591.689C115.4 586.452 137.133 558.684 139.957 517.24C166.113 508.382 192.47 498.922 219.028 490.065C244.178 481.409 269.529 472.955 295.282 464.098C317.405 505.135 351.2 528.869 395.861 536.908C395.857 561.05 395.651 584.991 395.445 609.737C370.296 615.576 349.974 629.864 335.685 652.601C312.743 689.623 318.568 739.315 353.569 768.279C392.995 801.266 443.292 799.245 477.701 765.238C528.007 715.335 508.909 633.858 441.516 612.344C433.671 609.73 431.257 606.511 431.46 598.665C431.866 578.144 431.266 557.825 431.069 537.505C495.45 525.422 531.671 486.788 546.972 424.417C593.446 425.415 640.523 426.613 687.801 427.61C693.027 456.982 707.911 477.5 735.069 487.353C770.274 500.021 807.295 482.712 822.592 447.301C836.48 415.31 822.001 376.283 790.016 359.59C756.824 342.496 716.585 353.77 697.667 386.365C693.843 393.005 690.021 394.816 682.979 394.617C637.713 393.217 592.446 392.219 547.18 391.222C539.344 337.104 509.173 300.897 459.484 279.379C464.921 253.023 470.559 226.465 476.8 200.109C477.606 197.292 484.245 194.675 488.47 194.071C553.454 188.225 594.709 122.429 570.78 61.8771C556.703 26.0687 521.098 1.3296 482.672 0.733203C443.039 0.137032 407.022 23.6824 391.725 60.7033C376.428 96.9195 384.669 139.368 412.83 166.724C419.669 173.161 427.514 178.591 435.963 183.016C442.803 186.636 443.406 190.056 441.795 196.896C436.559 221.442 431.324 246.39 425.686 272.143Z" fill="#6D3DF5"/>
</svg>